#!OML:ASF G:\JayActor3\Patient Classification 1\Patient 1\Session 6\male.ASF
:FULLY-SPECIFIED
:DEGREES
1218
root 3.87003 16.2794 -19.7698 175.411 -39.8633 -177.667
lowerback -2.90732 1.25235 1.51672
upperback 6.36736 1.33434 0.395402
thorax 8.33756 0.647793 -0.311151
lowerneck -3.53152 -2.21852 -1.59377
upperneck 11.6113 -3.42085 2.60254
head 4.55461 -1.73174 0.981765
rclavicle 4.07509e-015 3.32964e-015
rhumerus 7.65824 39.0396 -39.3278
rradius 119.902
rwrist -73.8161
rhand -29.6533 -33.3043
rfingers 7.12502
rthumb -2.98264 -63.2632
lclavicle 4.07509e-015 3.32964e-015
lhumerus -35.7938 11.5726 74.9253
lradius 23.5678
lwrist 25.2427
lhand -10.7437 12.7627
lfingers 7.12502
lthumb 15.2674 42.1793
rfemur -12.3418 -0.782557 19.2927
rtibia 38.5553
rfoot -25.6223 -15.6886
rtoes 2.65465
lfemur -2.56877 6.93416 -16.557
ltibia 25.0289
lfoot -20.3652 -1.36062
ltoes 2.08864
1219
root 3.89865 16.2797 -19.7953 175.307 -40.21 -177.571
lowerback -2.94081 1.23357 1.5339
upperback 6.37491 1.30702 0.404473
thorax 8.36525 0.635489 -0.313192
lowerneck -3.95395 -2.29454 -1.73125
upperneck 12.5794 -3.58604 2.88002
head 4.49609 -1.79452 0.977508
rclavicle -1.18774e-014 -6.80837e-015
rhumerus 7.31852 39.1253 -39.5592
rradius 119.849
rwrist -73.9416
rhand -29.6504 -33.3367
rfingers 7.12502
rthumb -2.97979 -63.2956
lclavicle -1.18774e-014 -6.80837e-015
lhumerus -35.8149 11.632 74.8803
lradius 23.583
lwrist 25.193
lhand -10.6361 12.8103
lfingers 7.12502
lthumb 15.371 42.219
rfemur -12.1859 -0.879087 19.5076
rtibia 38.4646
rfoot -25.8191 -15.8596
rtoes 2.82697
lfemur -2.62252 6.81199 -16.3277
ltibia 25.0943
lfoot -20.2752 -1.63991
ltoes 1.98532
1220
root 3.92797 16.2799 -19.8208 175.215 -40.5639 -177.497
lowerback -2.95864 1.20984 1.53208
upperback 6.37581 1.27557 0.407245
thorax 8.37597 0.620234 -0.312069
lowerneck -4.41161 -2.36501 -1.87683
upperneck 13.2534 -3.73158 3.08742
head 4.78968 -1.85997 1.0468
rclavicle -2.73329e-015 -6.36111e-015
rhumerus 6.99063 39.2141 -39.7936
rradius 119.787
rwrist -74.056
rhand -29.6389 -33.3465
rfingers 7.12502
rthumb -2.96877 -63.3056
lclavicle -2.73329e-015 -6.36111e-015
lhumerus -35.845 11.6661 74.8411
lradius 23.6389
lwrist 25.1757
lhand -10.5183 12.8675
lfingers 7.12502
lthumb 15.4845 42.2674
rfemur -12.0337 -0.973771 19.7061
rtibia 38.3794
rfoot -26.0242 -16.0254
rtoes 3.0218
lfemur -2.67676 6.7085 -16.1113
ltibia 25.1542
lfoot -20.179 -1.92638
ltoes 1.82365
1221
root 3.95785 16.2799 -19.8462 175.133 -40.9246 -177.441
lowerback -2.95187 1.18061 1.51657
upperback 6.36431 1.23946 0.402582
thorax 8.35841 0.60222 -0.312207
lowerneck -4.86491 -2.42774 -2.0195
upperneck 13.9369 -3.87113 3.29826
head 5.08732 -1.92158 1.11677
rclavicle 1.55176e-014 -9.64106e-015
rhumerus 6.66825 39.3152 -40.0362
rradius 119.716
rwrist -74.1551
rhand -29.6243 -33.3418
rfingers 7.12502
rthumb -2.95459 -63.3011
lclavicle 1.55176e-014 -9.64106e-015
lhumerus -35.8994 11.6769 74.8003
lradius 23.744
lwrist 25.1975
lhand -10.384 12.9453
lfingers 7.12502
lthumb 15.6138 42.3351
rfemur -11.8853 -1.07602 19.8858
rtibia 38.2994
rfoot -26.23 -16.1786
rtoes 3.22673
lfemur -2.73094 6.62315 -15.9093
ltibia 25.2083
lfoot -20.0774 -2.21907
ltoes 1.60946
1222
root 3.98792 16.2795 -19.8713 175.055 -41.2908 -177.4
lowerback -2.92894 1.14745 1.49954
upperback 6.34716 1.19944 0.388936
thorax 8.32528 0.582552 -0.32168
lowerneck -5.30504 -2.48236 -2.15771
upperneck 14.6101 -4.00359 3.51452
head 5.38142 -1.97855 1.18824
rclavicle -2.79665e-014 1.09332e-015
rhumerus 6.35219 39.4243 -40.2854
rradius 119.643
rwrist -74.237
rhand -29.6125 -33.3354
rfingers 7.12502
rthumb -2.94325 -63.2948
lclavicle -2.79665e-014 1.09332e-015
lhumerus -35.9654 11.6664 74.7559
lradius 23.8903
lwrist 25.2632
lhand -10.2282 13.0456
lfingers 7.12502
lthumb 15.7639 42.4237
rfemur -11.7346 -1.18738 20.0506
rtibia 38.221
rfoot -26.4314 -16.3182
rtoes 3.43889
lfemur -2.78258 6.54039 -15.7202
ltibia 25.2611
lfoot -19.9795 -2.50489
ltoes 1.34445
1223
root 4.01817 16.2789 -19.8963 174.986 -41.6605 -177.374
lowerback -2.89373 1.11289 1.47991
upperback 6.32286 1.159 0.366773
thorax 8.27728 0.562916 -0.338927
lowerneck -5.71622 -2.52849 -2.28741
upperneck 15.2526 -4.12712 3.73171
head 5.6627 -2.03015 1.25977
rclavicle -7.99984e-014 1.31198e-014
rhumerus 6.03623 39.5418 -40.5382
rradius 119.57
rwrist -74.3011
rhand -29.6094 -33.3219
rfingers 7.12502
rthumb -2.94029 -63.2814
lclavicle -7.99984e-014 1.31198e-014
lhumerus -36.0394 11.6534 74.6984
lradius 24.0663
lwrist 25.3487
lhand -10.0557 13.1653
lfingers 7.12502
lthumb 15.93 42.5302
rfemur -11.5833 -1.30895 20.2008
rtibia 38.1419
rfoot -26.6269 -16.4413
rtoes 3.65814
lfemur -2.83664 6.46131 -15.5444
ltibia 25.316
lfoot -19.8861 -2.78743
ltoes 1.06087
1224
root 4.0488 16.2783 -19.921 174.911 -42.0329 -177.339
lowerback -2.85141 1.07766 1.47567
upperback 6.29588 1.117 0.341438
thorax 8.22264 0.543602 -0.368343
lowerneck -6.09322 -2.56993 -2.41498
upperneck 15.8465 -4.24551 3.95567
head 5.92482 -2.07814 1.33431
rclavicle -2.74447e-014 8.64713e-015
rhumerus 5.72977 39.6645 -40.7837
rradius 119.505
rwrist -74.3452
rhand -29.6178 -33.3266
rfingers 7.12502
rthumb -2.94831 -63.2859
lclavicle -2.74447e-014 8.64713e-015
lhumerus -36.1092 11.6367 74.6352
lradius 24.263
lwrist 25.4524
lhand -9.88137 13.2926
lfingers 7.12502
lthumb 16.0979 42.644
rfemur -11.4341 -1.43661 20.3567
rtibia 38.0591
rfoot -26.8172 -16.5551
rtoes 3.88924
lfemur -2.89863 6.37502 -15.3649
ltibia 25.3753
lfoot -19.7984 -3.05696
ltoes 0.758188
1225
root 4.07976 16.2778 -19.9454 174.832 -42.4083 -177.295
lowerback -2.80475 1.04163 1.48564
upperback 6.26621 1.07327 0.313881
thorax 8.16289 0.524408 -0.408214
lowerneck -6.42789 -2.60764 -2.53689
upperneck 16.3791 -4.35825 4.18007
head 6.16186 -2.12258 1.40957
rclavicle -8.67198e-014 9.54166e-015
rhumerus 5.43509 39.7938 -41.0167
rradius 119.448
rwrist -74.3805
rhand -29.6477 -33.3287
rfingers 7.12502
rthumb -2.97725 -63.2876
lclavicle -8.67198e-014 9.54166e-015
lhumerus -36.172 11.6097 74.5728
lradius 24.4704
lwrist 25.571
lhand -9.72513 13.4167
lfingers 7.12502
lthumb 16.2483 42.7558
rfemur -11.2878 -1.57097 20.5186
rtibia 37.9722
rfoot -27.0053 -16.6584
rtoes 4.13716
lfemur -2.96999 6.27235 -15.1836
ltibia 25.4382
lfoot -19.7193 -3.30783
ltoes 0.446895
1226
root 4.11114 16.2774 -19.9696 174.751 -42.7827 -177.245
lowerback -2.75806 1.00765 1.50398
upperback 6.23811 1.03167 0.285135
thorax 8.10508 0.506748 -0.453689
lowerneck -6.71791 -2.64577 -2.65338
upperneck 16.8406 -4.46918 4.40283
head 6.36997 -2.16552 1.48475
rclavicle 7.15128e-014 -1.48095e-014
rhumerus 5.15796 39.9226 -41.2327
rradius 119.397
rwrist -74.4058
rhand -29.6894 -33.3272
rfingers 7.12502
rthumb -3.01754 -63.2856
lclavicle 7.15128e-014 -1.48095e-014
lhumerus -36.218 11.5646 74.5197
lradius 24.6794
lwrist 25.7025
lhand -9.60564 13.5212
lfingers 7.12502
lthumb 16.3634 42.8509
rfemur -11.1453 -1.70748 20.6857
rtibia 37.881
rfoot -27.1889 -16.7615
rtoes 4.37808
lfemur -3.04911 6.16067 -15.0009
ltibia 25.5043
lfoot -19.6508 -3.54061
ltoes 0.116211
1227
root 4.14292 16.2771 -19.9934 174.668 -43.1632 -177.191
lowerback -2.7072 0.973401 1.52714
upperback 6.2097 0.989374 0.256541
thorax 8.04457 0.48897 -0.50174
lowerneck -6.95795 -2.68515 -2.76457
upperneck 17.2288 -4.57811 4.61957
head 6.54701 -2.20743 1.55853
rclavicle 5.42185e-014 -9.74045e-015
rhumerus 4.89735 40.0533 -41.4296
rradius 119.353
rwrist -74.4294
rhand -29.7463 -33.3019
rfingers 7.12502
rthumb -3.07247 -63.2595
lclavicle 5.42185e-014 -9.74045e-015
lhumerus -36.2519 11.5016 74.4777
lradius 24.8836
lwrist 25.8456
lhand -9.52674 13.5945
lfingers 7.12502
lthumb 16.4393 42.9179
rfemur -11.0062 -1.8454 20.8565
rtibia 37.7866
rfoot -27.3715 -16.8718
rtoes 4.60992
lfemur -3.13578 6.03237 -14.8198
ltibia 25.5717
lfoot -19.5913 -3.75825
ltoes -0.218267
1228
root 4.17506 16.2771 -20.017 174.584 -43.5431 -177.129
lowerback -2.6547 0.939415 1.55698
upperback 6.18024 0.946897 0.230167
thorax 7.98202 0.471376 -0.551141
lowerneck -7.15501 -2.7258 -2.86985
upperneck 17.5476 -4.68359 4.82521
head 6.69489 -2.24796 1.62913
rclavicle 1.04287e-013 -1.66979e-014
rhumerus 4.65983 40.1841 -41.6074
rradius 119.31
rwrist -74.4524
rhand -29.8089 -33.2481
rfingers 7.12502
rthumb -3.13286 -63.2048
lclavicle 1.04287e-013 -1.66979e-014
lhumerus -36.274 11.4278 74.4441
lradius 25.0797
lwrist 26.0031
lhand -9.48182 13.647
lfingers 7.12502
lthumb 16.4826 42.9669
rfemur -10.8743 -1.98018 21.0343
rtibia 37.6892
rfoot -27.5595 -16.9775
rtoes 4.86626
lfemur -3.23183 5.8978 -14.6353
ltibia 25.6391
lfoot -19.537 -3.96942
ltoes -0.535504
1229
root 4.20726 16.277 -20.0401 174.487 -43.9309 -177.051
lowerback -2.59261 0.901038 1.59788
upperback 6.14827 0.897729 0.207808
thorax 7.9111 0.450911 -0.603183
lowerneck -7.31395 -2.76591 -2.96358
upperneck 17.8077 -4.78233 5.00948
head 6.81698 -2.28609 1.69242
rclavicle 3.93842e-014 -6.36111e-015
rhumerus 4.44438 40.3164 -41.7708
rradius 119.267
rwrist -74.4758
rhand -29.8728 -33.1725
rfingers 7.12502
rthumb -3.19459 -63.1283
lclavicle 3.93842e-014 -6.36111e-015
lhumerus -36.2949 11.3481 74.4168
lradius 25.2701
lwrist 26.1966
lhand -9.48328 13.6536
lfingers 7.12502
lthumb 16.4812 42.9736
rfemur -10.7423 -2.1238 21.2217
rtibia 37.589
rfoot -27.7498 -17.083
rtoes 5.12744
lfemur -3.33268 5.77225 -14.4393
ltibia 25.7066
lfoot -19.4781 -4.19951
ltoes -0.830772
